<?xml version="1.0" standalone="no"?>
<!DOCTYPE svg PUBLIC "-//W3C//DTD SVG 20010904//EN"
 "http://www.w3.org/TR/2001/REC-SVG-20010904/DTD/svg10.dtd">
<svg version="1.0" xmlns="http://www.w3.org/2000/svg"
 width="500.000000pt" height="146.000000pt" viewBox="0 0 500.000000 146.000000"
 preserveAspectRatio="xMidYMid meet">

<g transform="translate(0.000000,146.000000) scale(0.100000,-0.100000)"
fill="#000000" stroke="none">
<path d="M335 1238 c-24 -22 -27 -33 -46 -208 -28 -257 -16 -231 -102 -224
l-73 7 -23 -211 c-13 -116 -21 -223 -17 -237 12 -49 35 -54 413 -96 197 -21
365 -37 374 -34 47 15 50 29 95 437 54 490 54 473 23 503 -22 22 -45 26 -310
54 -157 17 -290 31 -296 31 -7 0 -24 -10 -38 -22z m337 -38 c240 -27 275 -33
290 -51 11 -13 15 -31 13 -47 -3 -15 -23 -196 -45 -402 -22 -206 -42 -385 -45
-397 -10 -44 -27 -45 -337 -12 -161 18 -296 35 -299 38 -4 3 15 202 42 441 40
368 50 436 65 447 23 17 -2 18 316 -17z m-415 -434 c1 -1 -7 -87 -18 -192 -23
-207 -32 -234 -79 -234 -37 0 -60 24 -60 63 0 30 22 237 36 336 l6 43 56 -7
c31 -4 58 -8 59 -9z"/>
<path d="M443 1154 c-20 -20 -24 -32 -19 -55 4 -23 1 -32 -18 -44 -12 -8 -28
-26 -34 -40 -10 -21 -7 -27 24 -54 28 -25 44 -31 80 -31 95 0 130 48 79 108
-15 19 -21 33 -15 37 17 11 11 64 -10 85 -27 27 -56 25 -87 -6z m65 -16 c30
-30 -1 -73 -36 -51 -23 14 -25 29 -7 47 20 19 27 20 43 4z m-9 -99 c42 -15 60
-48 35 -66 -26 -19 -88 -16 -115 6 -21 17 -22 21 -9 36 8 9 23 21 35 25 11 5
20 9 21 9 1 1 15 -4 33 -10z"/>
<path d="M655 1099 c-11 -17 1 -22 60 -27 38 -3 55 -1 55 7 0 14 -10 17 -67
25 -25 4 -44 2 -48 -5z"/>
<path d="M642 998 c5 -15 49 -24 172 -34 73 -6 88 -4 84 7 -3 9 -35 18 -99 26
-129 16 -162 16 -157 1z"/>
<path d="M355 870 c-4 -6 -4 -14 -1 -17 4 -4 487 -62 529 -63 4 0 7 6 7 14 0
17 -15 20 -270 46 -107 11 -209 22 -227 25 -18 3 -34 1 -38 -5z"/>
<path d="M345 759 c-4 -6 -5 -12 -3 -15 3 -2 121 -17 264 -33 236 -27 294 -28
271 -5 -5 5 -465 61 -519 64 -4 0 -10 -5 -13 -11z"/>
<path d="M330 645 c0 -8 4 -15 9 -15 5 0 111 -11 237 -25 263 -29 297 -30 292
-12 -3 8 -81 21 -244 39 -289 32 -294 32 -294 13z"/>
<path d="M320 537 c0 -19 516 -75 532 -59 17 17 6 19 -252 47 -273 29 -280 29
-280 12z"/>
<path d="M313 437 c-3 -5 -1 -12 3 -16 7 -6 483 -62 517 -61 16 0 6 30 -10 31
-10 0 -127 12 -261 28 -139 15 -246 23 -249 18z"/>
<path d="M3854 1090 c-198 -40 -324 -231 -293 -446 17 -121 93 -230 196 -283
94 -48 232 -49 338 -2 l44 20 -15 45 c-9 25 -19 46 -22 46 -4 0 -31 -9 -60
-20 -108 -41 -213 -22 -284 50 -96 100 -105 278 -19 397 64 89 204 120 306 68
27 -13 50 -23 51 -22 7 9 44 88 44 95 0 12 -64 39 -120 52 -52 11 -108 11
-166 0z"/>
<path d="M1180 710 l0 -380 55 0 55 0 2 242 3 241 219 -241 c120 -133 222
-242 227 -242 5 0 8 158 7 378 l-3 377 -55 0 -55 0 0 -243 c0 -133 -3 -241 -6
-240 -3 2 -104 112 -223 246 -120 133 -220 242 -222 242 -2 0 -4 -171 -4 -380z"/>
<path d="M4170 1078 c0 -20 336 -742 347 -745 8 -3 353 732 353 751 0 4 -28 6
-62 4 l-63 -3 -111 -252 c-61 -139 -112 -255 -115 -257 -2 -2 -54 111 -116
252 l-111 257 -61 3 c-45 2 -61 0 -61 -10z"/>
<path d="M2003 786 c-196 -92 -164 -405 47 -456 172 -41 310 65 310 240 0 104
-53 187 -142 224 -57 24 -153 20 -215 -8z m176 -81 c16 -8 38 -34 50 -58 53
-110 -6 -237 -109 -237 -77 0 -130 62 -130 154 0 64 17 104 56 135 32 25 92
28 133 6z"/>
<path d="M3103 786 c-196 -92 -164 -405 47 -456 172 -41 310 65 310 240 0 104
-53 187 -142 224 -57 24 -153 20 -215 -8z m176 -81 c16 -8 38 -34 50 -58 53
-110 -6 -237 -109 -237 -77 0 -130 62 -130 154 0 64 17 104 56 135 32 25 92
28 133 6z"/>
<path d="M2490 648 c44 -84 100 -190 123 -235 23 -46 47 -83 53 -83 10 0 254
447 254 465 0 3 -27 5 -60 3 l-60 -3 -52 -110 c-29 -61 -59 -126 -66 -145 -9
-23 -16 -30 -19 -20 -3 8 -32 75 -66 148 l-60 132 -64 0 -64 0 81 -152z"/>
</g>
</svg>
